# xmcd
#
# Track frame offsets:
#        150
#        14987
#        44447
#        68627
#
# Disc length: 1105 seconds
#
# Revision: 0
# Processed by: cddbd v1.5.1PL0 Copyright (c) Steve Scherf et al.
# Submitted via: ExactAudioCopy v0.95b1
#
DISCID=34044f04
DTITLE=The Clash - Return To Brixton
DYEAR=1990
DGENRE=Punk Rock
TTITLE0=Return To Brixton
TTITLE1=Return To Brixton
TTITLE2=Return To Brixton (Sw2 Dub)
TTITLE3=The Guns Of Brixton
EXTD=
EXTT0=
EXTT1=
EXTT2=
EXTT3=
PLAYORDER=
